<svg xmlns="http://www.w3.org/2000/svg" viewBox="0 0 512 512" width="512" height="512" role="img" aria-label="মাদরাসাতুল মদীনা">
  <defs>
    <linearGradient id="gbg" x1="0" y1="0" x2="0" y2="1">
      <stop offset="0" stop-color="#f3d785"/>
      <stop offset="1" stop-color="#c9952a"/>
    </linearGradient>
  </defs>
  <rect width="512" height="512" rx="112" fill="url(#gbg)"/>
  <g transform="translate(256 256) scale(11) translate(-12 -12)" fill="none" stroke="#1a1208" stroke-width="1.5" stroke-linecap="round" stroke-linejoin="round">
    <path d="M12 6c-1.7-1.1-4.1-1.7-6.2-1.7-.6 0-1 .4-1 1V17c0 .6.5 1 1 1 2 0 4.3.5 6.2 1.6 1.9-1.1 4.2-1.6 6.2-1.6.5 0 1-.4 1-1V5.3c0-.6-.4-1-1-1-2.1 0-4.5.6-6.2 1.7z"/>
    <path d="M12 6v13.2"/>
  </g>
</svg>
